G04 #@! TF.GenerationSoftware,KiCad,Pcbnew,5.1.9+dfsg1-1+deb11u1*
G04 #@! TF.CreationDate,2023-08-09T03:16:42+03:00*
G04 #@! TF.ProjectId,PTT-USB-Cable,5054542d-5553-4422-9d43-61626c652e6b,A*
G04 #@! TF.SameCoordinates,Original*
G04 #@! TF.FileFunction,Legend,Bot*
G04 #@! TF.FilePolarity,Positive*
%FSLAX46Y46*%
G04 Gerber Fmt 4.6, Leading zero omitted, Abs format (unit mm)*
G04 Created by KiCad (PCBNEW 5.1.9+dfsg1-1+deb11u1) date 2023-08-09 03:16:42*
%MOMM*%
%LPD*%
G01*
G04 APERTURE LIST*
%ADD10C,0.150000*%
%ADD11C,0.120000*%
G04 APERTURE END LIST*
D10*
X79447619Y-112411904D02*
X79447619Y-113059523D01*
X79409523Y-113135714D01*
X79371428Y-113173809D01*
X79295238Y-113211904D01*
X79142857Y-113211904D01*
X79066666Y-113173809D01*
X79028571Y-113135714D01*
X78990476Y-113059523D01*
X78990476Y-112411904D01*
X78723809Y-112411904D02*
X78266666Y-112411904D01*
X78495238Y-113211904D02*
X78495238Y-112411904D01*
X77885714Y-112754761D02*
X77961904Y-112716666D01*
X78000000Y-112678571D01*
X78038095Y-112602380D01*
X78038095Y-112564285D01*
X78000000Y-112488095D01*
X77961904Y-112450000D01*
X77885714Y-112411904D01*
X77733333Y-112411904D01*
X77657142Y-112450000D01*
X77619047Y-112488095D01*
X77580952Y-112564285D01*
X77580952Y-112602380D01*
X77619047Y-112678571D01*
X77657142Y-112716666D01*
X77733333Y-112754761D01*
X77885714Y-112754761D01*
X77961904Y-112792857D01*
X78000000Y-112830952D01*
X78038095Y-112907142D01*
X78038095Y-113059523D01*
X78000000Y-113135714D01*
X77961904Y-113173809D01*
X77885714Y-113211904D01*
X77733333Y-113211904D01*
X77657142Y-113173809D01*
X77619047Y-113135714D01*
X77580952Y-113059523D01*
X77580952Y-112907142D01*
X77619047Y-112830952D01*
X77657142Y-112792857D01*
X77733333Y-112754761D01*
X77238095Y-113211904D02*
X77238095Y-112411904D01*
X76590476Y-112792857D02*
X76857142Y-112792857D01*
X76857142Y-113211904D02*
X76857142Y-112411904D01*
X76476190Y-112411904D01*
X75752380Y-112450000D02*
X75828571Y-112411904D01*
X75942857Y-112411904D01*
X76057142Y-112450000D01*
X76133333Y-112526190D01*
X76171428Y-112602380D01*
X76209523Y-112754761D01*
X76209523Y-112869047D01*
X76171428Y-113021428D01*
X76133333Y-113097619D01*
X76057142Y-113173809D01*
X75942857Y-113211904D01*
X75866666Y-113211904D01*
X75752380Y-113173809D01*
X75714285Y-113135714D01*
X75714285Y-112869047D01*
X75866666Y-112869047D01*
X73554761Y-112411904D02*
X73554761Y-113059523D01*
X73516666Y-113135714D01*
X73478571Y-113173809D01*
X73402380Y-113211904D01*
X73250000Y-113211904D01*
X73173809Y-113173809D01*
X73135714Y-113135714D01*
X73097619Y-113059523D01*
X73097619Y-112411904D01*
X72754761Y-113173809D02*
X72640476Y-113211904D01*
X72450000Y-113211904D01*
X72373809Y-113173809D01*
X72335714Y-113135714D01*
X72297619Y-113059523D01*
X72297619Y-112983333D01*
X72335714Y-112907142D01*
X72373809Y-112869047D01*
X72450000Y-112830952D01*
X72602380Y-112792857D01*
X72678571Y-112754761D01*
X72716666Y-112716666D01*
X72754761Y-112640476D01*
X72754761Y-112564285D01*
X72716666Y-112488095D01*
X72678571Y-112450000D01*
X72602380Y-112411904D01*
X72411904Y-112411904D01*
X72297619Y-112450000D01*
X71688095Y-112792857D02*
X71573809Y-112830952D01*
X71535714Y-112869047D01*
X71497619Y-112945238D01*
X71497619Y-113059523D01*
X71535714Y-113135714D01*
X71573809Y-113173809D01*
X71650000Y-113211904D01*
X71954761Y-113211904D01*
X71954761Y-112411904D01*
X71688095Y-112411904D01*
X71611904Y-112450000D01*
X71573809Y-112488095D01*
X71535714Y-112564285D01*
X71535714Y-112640476D01*
X71573809Y-112716666D01*
X71611904Y-112754761D01*
X71688095Y-112792857D01*
X71954761Y-112792857D01*
X70545238Y-113211904D02*
X70545238Y-112411904D01*
X70240476Y-112411904D01*
X70164285Y-112450000D01*
X70126190Y-112488095D01*
X70088095Y-112564285D01*
X70088095Y-112678571D01*
X70126190Y-112754761D01*
X70164285Y-112792857D01*
X70240476Y-112830952D01*
X70545238Y-112830952D01*
X69859523Y-112411904D02*
X69402380Y-112411904D01*
X69630952Y-113211904D02*
X69630952Y-112411904D01*
X69250000Y-112411904D02*
X68792857Y-112411904D01*
X69021428Y-113211904D02*
X69021428Y-112411904D01*
X67459523Y-113135714D02*
X67497619Y-113173809D01*
X67611904Y-113211904D01*
X67688095Y-113211904D01*
X67802380Y-113173809D01*
X67878571Y-113097619D01*
X67916666Y-113021428D01*
X67954761Y-112869047D01*
X67954761Y-112754761D01*
X67916666Y-112602380D01*
X67878571Y-112526190D01*
X67802380Y-112450000D01*
X67688095Y-112411904D01*
X67611904Y-112411904D01*
X67497619Y-112450000D01*
X67459523Y-112488095D01*
X66773809Y-113211904D02*
X66773809Y-112792857D01*
X66811904Y-112716666D01*
X66888095Y-112678571D01*
X67040476Y-112678571D01*
X67116666Y-112716666D01*
X66773809Y-113173809D02*
X66850000Y-113211904D01*
X67040476Y-113211904D01*
X67116666Y-113173809D01*
X67154761Y-113097619D01*
X67154761Y-113021428D01*
X67116666Y-112945238D01*
X67040476Y-112907142D01*
X66850000Y-112907142D01*
X66773809Y-112869047D01*
X66392857Y-113211904D02*
X66392857Y-112411904D01*
X66392857Y-112716666D02*
X66316666Y-112678571D01*
X66164285Y-112678571D01*
X66088095Y-112716666D01*
X66050000Y-112754761D01*
X66011904Y-112830952D01*
X66011904Y-113059523D01*
X66050000Y-113135714D01*
X66088095Y-113173809D01*
X66164285Y-113211904D01*
X66316666Y-113211904D01*
X66392857Y-113173809D01*
X65554761Y-113211904D02*
X65630952Y-113173809D01*
X65669047Y-113097619D01*
X65669047Y-112411904D01*
X64945238Y-113173809D02*
X65021428Y-113211904D01*
X65173809Y-113211904D01*
X65250000Y-113173809D01*
X65288095Y-113097619D01*
X65288095Y-112792857D01*
X65250000Y-112716666D01*
X65173809Y-112678571D01*
X65021428Y-112678571D01*
X64945238Y-112716666D01*
X64907142Y-112792857D01*
X64907142Y-112869047D01*
X65288095Y-112945238D01*
D11*
X74500000Y-100850000D02*
X74500000Y-101450000D01*
X76600000Y-100150000D02*
X75200000Y-100150000D01*
X77300000Y-101450000D02*
X77300000Y-100850000D01*
X75200000Y-102150000D02*
X76600000Y-102150000D01*
X74500000Y-101450000D02*
G75*
G03*
X75200000Y-102150000I700000J0D01*
G01*
X75200000Y-100150000D02*
G75*
G03*
X74500000Y-100850000I0J-700000D01*
G01*
X77300000Y-100850000D02*
G75*
G03*
X76600000Y-100150000I-700000J0D01*
G01*
X76600000Y-102150000D02*
G75*
G03*
X77300000Y-101450000I0J700000D01*
G01*
X72327064Y-101665000D02*
X71872936Y-101665000D01*
X72327064Y-103135000D02*
X71872936Y-103135000D01*
X60438748Y-106665000D02*
X60961252Y-106665000D01*
X60438748Y-108135000D02*
X60961252Y-108135000D01*
X74576248Y-108565000D02*
X75098752Y-108565000D01*
X74576248Y-110035000D02*
X75098752Y-110035000D01*
X72327064Y-105135000D02*
X71872936Y-105135000D01*
X72327064Y-103665000D02*
X71872936Y-103665000D01*
X70927064Y-110035000D02*
X70472936Y-110035000D01*
X70927064Y-108565000D02*
X70472936Y-108565000D01*
X65480000Y-103060000D02*
X65480000Y-101600000D01*
X62320000Y-103060000D02*
X62320000Y-100900000D01*
X62320000Y-103060000D02*
X63250000Y-103060000D01*
X65480000Y-103060000D02*
X64550000Y-103060000D01*
X61835000Y-102222936D02*
X61835000Y-102677064D01*
X60365000Y-102222936D02*
X60365000Y-102677064D01*
X76127064Y-105135000D02*
X75672936Y-105135000D01*
X76127064Y-103665000D02*
X75672936Y-103665000D01*
D10*
X79366666Y-100711904D02*
X79366666Y-101283333D01*
X79404761Y-101397619D01*
X79480952Y-101473809D01*
X79595238Y-101511904D01*
X79671428Y-101511904D01*
X78985714Y-101511904D02*
X78985714Y-100711904D01*
X78680952Y-100711904D01*
X78604761Y-100750000D01*
X78566666Y-100788095D01*
X78528571Y-100864285D01*
X78528571Y-100978571D01*
X78566666Y-101054761D01*
X78604761Y-101092857D01*
X78680952Y-101130952D01*
X78985714Y-101130952D01*
X78223809Y-100788095D02*
X78185714Y-100750000D01*
X78109523Y-100711904D01*
X77919047Y-100711904D01*
X77842857Y-100750000D01*
X77804761Y-100788095D01*
X77766666Y-100864285D01*
X77766666Y-100940476D01*
X77804761Y-101054761D01*
X78261904Y-101511904D01*
X77766666Y-101511904D01*
X72283333Y-101261904D02*
X72550000Y-100880952D01*
X72740476Y-101261904D02*
X72740476Y-100461904D01*
X72435714Y-100461904D01*
X72359523Y-100500000D01*
X72321428Y-100538095D01*
X72283333Y-100614285D01*
X72283333Y-100728571D01*
X72321428Y-100804761D01*
X72359523Y-100842857D01*
X72435714Y-100880952D01*
X72740476Y-100880952D01*
X71826190Y-100804761D02*
X71902380Y-100766666D01*
X71940476Y-100728571D01*
X71978571Y-100652380D01*
X71978571Y-100614285D01*
X71940476Y-100538095D01*
X71902380Y-100500000D01*
X71826190Y-100461904D01*
X71673809Y-100461904D01*
X71597619Y-100500000D01*
X71559523Y-100538095D01*
X71521428Y-100614285D01*
X71521428Y-100652380D01*
X71559523Y-100728571D01*
X71597619Y-100766666D01*
X71673809Y-100804761D01*
X71826190Y-100804761D01*
X71902380Y-100842857D01*
X71940476Y-100880952D01*
X71978571Y-100957142D01*
X71978571Y-101109523D01*
X71940476Y-101185714D01*
X71902380Y-101223809D01*
X71826190Y-101261904D01*
X71673809Y-101261904D01*
X71597619Y-101223809D01*
X71559523Y-101185714D01*
X71521428Y-101109523D01*
X71521428Y-100957142D01*
X71559523Y-100880952D01*
X71597619Y-100842857D01*
X71673809Y-100804761D01*
X60883333Y-109285714D02*
X60921428Y-109323809D01*
X61035714Y-109361904D01*
X61111904Y-109361904D01*
X61226190Y-109323809D01*
X61302380Y-109247619D01*
X61340476Y-109171428D01*
X61378571Y-109019047D01*
X61378571Y-108904761D01*
X61340476Y-108752380D01*
X61302380Y-108676190D01*
X61226190Y-108600000D01*
X61111904Y-108561904D01*
X61035714Y-108561904D01*
X60921428Y-108600000D01*
X60883333Y-108638095D01*
X60616666Y-108561904D02*
X60121428Y-108561904D01*
X60388095Y-108866666D01*
X60273809Y-108866666D01*
X60197619Y-108904761D01*
X60159523Y-108942857D01*
X60121428Y-109019047D01*
X60121428Y-109209523D01*
X60159523Y-109285714D01*
X60197619Y-109323809D01*
X60273809Y-109361904D01*
X60502380Y-109361904D01*
X60578571Y-109323809D01*
X60616666Y-109285714D01*
X75133333Y-111235714D02*
X75171428Y-111273809D01*
X75285714Y-111311904D01*
X75361904Y-111311904D01*
X75476190Y-111273809D01*
X75552380Y-111197619D01*
X75590476Y-111121428D01*
X75628571Y-110969047D01*
X75628571Y-110854761D01*
X75590476Y-110702380D01*
X75552380Y-110626190D01*
X75476190Y-110550000D01*
X75361904Y-110511904D01*
X75285714Y-110511904D01*
X75171428Y-110550000D01*
X75133333Y-110588095D01*
X74447619Y-110778571D02*
X74447619Y-111311904D01*
X74638095Y-110473809D02*
X74828571Y-111045238D01*
X74333333Y-111045238D01*
X69583333Y-104851904D02*
X69850000Y-104470952D01*
X70040476Y-104851904D02*
X70040476Y-104051904D01*
X69735714Y-104051904D01*
X69659523Y-104090000D01*
X69621428Y-104128095D01*
X69583333Y-104204285D01*
X69583333Y-104318571D01*
X69621428Y-104394761D01*
X69659523Y-104432857D01*
X69735714Y-104470952D01*
X70040476Y-104470952D01*
X68897619Y-104318571D02*
X68897619Y-104851904D01*
X69088095Y-104013809D02*
X69278571Y-104585238D01*
X68783333Y-104585238D01*
X70933333Y-111261904D02*
X71200000Y-110880952D01*
X71390476Y-111261904D02*
X71390476Y-110461904D01*
X71085714Y-110461904D01*
X71009523Y-110500000D01*
X70971428Y-110538095D01*
X70933333Y-110614285D01*
X70933333Y-110728571D01*
X70971428Y-110804761D01*
X71009523Y-110842857D01*
X71085714Y-110880952D01*
X71390476Y-110880952D01*
X70209523Y-110461904D02*
X70590476Y-110461904D01*
X70628571Y-110842857D01*
X70590476Y-110804761D01*
X70514285Y-110766666D01*
X70323809Y-110766666D01*
X70247619Y-110804761D01*
X70209523Y-110842857D01*
X70171428Y-110919047D01*
X70171428Y-111109523D01*
X70209523Y-111185714D01*
X70247619Y-111223809D01*
X70323809Y-111261904D01*
X70514285Y-111261904D01*
X70590476Y-111223809D01*
X70628571Y-111185714D01*
X63926190Y-105088095D02*
X64002380Y-105050000D01*
X64078571Y-104973809D01*
X64192857Y-104859523D01*
X64269047Y-104821428D01*
X64345238Y-104821428D01*
X64307142Y-105011904D02*
X64383333Y-104973809D01*
X64459523Y-104897619D01*
X64497619Y-104745238D01*
X64497619Y-104478571D01*
X64459523Y-104326190D01*
X64383333Y-104250000D01*
X64307142Y-104211904D01*
X64154761Y-104211904D01*
X64078571Y-104250000D01*
X64002380Y-104326190D01*
X63964285Y-104478571D01*
X63964285Y-104745238D01*
X64002380Y-104897619D01*
X64078571Y-104973809D01*
X64154761Y-105011904D01*
X64307142Y-105011904D01*
X63202380Y-105011904D02*
X63659523Y-105011904D01*
X63430952Y-105011904D02*
X63430952Y-104211904D01*
X63507142Y-104326190D01*
X63583333Y-104402380D01*
X63659523Y-104440476D01*
X61133333Y-105311904D02*
X61400000Y-104930952D01*
X61590476Y-105311904D02*
X61590476Y-104511904D01*
X61285714Y-104511904D01*
X61209523Y-104550000D01*
X61171428Y-104588095D01*
X61133333Y-104664285D01*
X61133333Y-104778571D01*
X61171428Y-104854761D01*
X61209523Y-104892857D01*
X61285714Y-104930952D01*
X61590476Y-104930952D01*
X60866666Y-104511904D02*
X60371428Y-104511904D01*
X60638095Y-104816666D01*
X60523809Y-104816666D01*
X60447619Y-104854761D01*
X60409523Y-104892857D01*
X60371428Y-104969047D01*
X60371428Y-105159523D01*
X60409523Y-105235714D01*
X60447619Y-105273809D01*
X60523809Y-105311904D01*
X60752380Y-105311904D01*
X60828571Y-105273809D01*
X60866666Y-105235714D01*
X76033333Y-103311904D02*
X76300000Y-102930952D01*
X76490476Y-103311904D02*
X76490476Y-102511904D01*
X76185714Y-102511904D01*
X76109523Y-102550000D01*
X76071428Y-102588095D01*
X76033333Y-102664285D01*
X76033333Y-102778571D01*
X76071428Y-102854761D01*
X76109523Y-102892857D01*
X76185714Y-102930952D01*
X76490476Y-102930952D01*
X75652380Y-103311904D02*
X75500000Y-103311904D01*
X75423809Y-103273809D01*
X75385714Y-103235714D01*
X75309523Y-103121428D01*
X75271428Y-102969047D01*
X75271428Y-102664285D01*
X75309523Y-102588095D01*
X75347619Y-102550000D01*
X75423809Y-102511904D01*
X75576190Y-102511904D01*
X75652380Y-102550000D01*
X75690476Y-102588095D01*
X75728571Y-102664285D01*
X75728571Y-102854761D01*
X75690476Y-102930952D01*
X75652380Y-102969047D01*
X75576190Y-103007142D01*
X75423809Y-103007142D01*
X75347619Y-102969047D01*
X75309523Y-102930952D01*
X75271428Y-102854761D01*
M02*
