G04 #@! TF.GenerationSoftware,KiCad,Pcbnew,5.1.9+dfsg1-1+deb11u1*
G04 #@! TF.CreationDate,2023-08-09T03:16:42+03:00*
G04 #@! TF.ProjectId,PTT-USB-Cable,5054542d-5553-4422-9d43-61626c652e6b,A*
G04 #@! TF.SameCoordinates,Original*
G04 #@! TF.FileFunction,Paste,Bot*
G04 #@! TF.FilePolarity,Positive*
%FSLAX46Y46*%
G04 Gerber Fmt 4.6, Leading zero omitted, Abs format (unit mm)*
G04 Created by KiCad (PCBNEW 5.1.9+dfsg1-1+deb11u1) date 2023-08-09 03:16:42*
%MOMM*%
%LPD*%
G01*
G04 APERTURE LIST*
%ADD10R,0.800000X0.900000*%
G04 APERTURE END LIST*
G36*
G01*
X71700000Y-101949999D02*
X71700000Y-102850001D01*
G75*
G02*
X71450001Y-103100000I-249999J0D01*
G01*
X70749999Y-103100000D01*
G75*
G02*
X70500000Y-102850001I0J249999D01*
G01*
X70500000Y-101949999D01*
G75*
G02*
X70749999Y-101700000I249999J0D01*
G01*
X71450001Y-101700000D01*
G75*
G02*
X71700000Y-101949999I0J-249999D01*
G01*
G37*
G36*
G01*
X73700000Y-101949999D02*
X73700000Y-102850001D01*
G75*
G02*
X73450001Y-103100000I-249999J0D01*
G01*
X72749999Y-103100000D01*
G75*
G02*
X72500000Y-102850001I0J249999D01*
G01*
X72500000Y-101949999D01*
G75*
G02*
X72749999Y-101700000I249999J0D01*
G01*
X73450001Y-101700000D01*
G75*
G02*
X73700000Y-101949999I0J-249999D01*
G01*
G37*
G36*
G01*
X61150000Y-107875000D02*
X61150000Y-106925000D01*
G75*
G02*
X61400000Y-106675000I250000J0D01*
G01*
X62075000Y-106675000D01*
G75*
G02*
X62325000Y-106925000I0J-250000D01*
G01*
X62325000Y-107875000D01*
G75*
G02*
X62075000Y-108125000I-250000J0D01*
G01*
X61400000Y-108125000D01*
G75*
G02*
X61150000Y-107875000I0J250000D01*
G01*
G37*
G36*
G01*
X59075000Y-107874725D02*
X59075000Y-106925275D01*
G75*
G02*
X59325275Y-106675000I250275J0D01*
G01*
X59999725Y-106675000D01*
G75*
G02*
X60250000Y-106925275I0J-250275D01*
G01*
X60250000Y-107874725D01*
G75*
G02*
X59999725Y-108125000I-250275J0D01*
G01*
X59325275Y-108125000D01*
G75*
G02*
X59075000Y-107874725I0J250275D01*
G01*
G37*
G36*
G01*
X75287500Y-109774725D02*
X75287500Y-108825275D01*
G75*
G02*
X75537775Y-108575000I250275J0D01*
G01*
X76212225Y-108575000D01*
G75*
G02*
X76462500Y-108825275I0J-250275D01*
G01*
X76462500Y-109774725D01*
G75*
G02*
X76212225Y-110025000I-250275J0D01*
G01*
X75537775Y-110025000D01*
G75*
G02*
X75287500Y-109774725I0J250275D01*
G01*
G37*
G36*
G01*
X73212500Y-109775000D02*
X73212500Y-108825000D01*
G75*
G02*
X73462500Y-108575000I250000J0D01*
G01*
X74137500Y-108575000D01*
G75*
G02*
X74387500Y-108825000I0J-250000D01*
G01*
X74387500Y-109775000D01*
G75*
G02*
X74137500Y-110025000I-250000J0D01*
G01*
X73462500Y-110025000D01*
G75*
G02*
X73212500Y-109775000I0J250000D01*
G01*
G37*
G36*
G01*
X71700000Y-103949999D02*
X71700000Y-104850001D01*
G75*
G02*
X71450001Y-105100000I-249999J0D01*
G01*
X70749999Y-105100000D01*
G75*
G02*
X70500000Y-104850001I0J249999D01*
G01*
X70500000Y-103949999D01*
G75*
G02*
X70749999Y-103700000I249999J0D01*
G01*
X71450001Y-103700000D01*
G75*
G02*
X71700000Y-103949999I0J-249999D01*
G01*
G37*
G36*
G01*
X73700000Y-103949999D02*
X73700000Y-104850001D01*
G75*
G02*
X73450001Y-105100000I-249999J0D01*
G01*
X72749999Y-105100000D01*
G75*
G02*
X72500000Y-104850001I0J249999D01*
G01*
X72500000Y-103949999D01*
G75*
G02*
X72749999Y-103700000I249999J0D01*
G01*
X73450001Y-103700000D01*
G75*
G02*
X73700000Y-103949999I0J-249999D01*
G01*
G37*
G36*
G01*
X70300000Y-108849999D02*
X70300000Y-109750001D01*
G75*
G02*
X70050001Y-110000000I-249999J0D01*
G01*
X69349999Y-110000000D01*
G75*
G02*
X69100000Y-109750001I0J249999D01*
G01*
X69100000Y-108849999D01*
G75*
G02*
X69349999Y-108600000I249999J0D01*
G01*
X70050001Y-108600000D01*
G75*
G02*
X70300000Y-108849999I0J-249999D01*
G01*
G37*
G36*
G01*
X72300000Y-108849999D02*
X72300000Y-109750001D01*
G75*
G02*
X72050001Y-110000000I-249999J0D01*
G01*
X71349999Y-110000000D01*
G75*
G02*
X71100000Y-109750001I0J249999D01*
G01*
X71100000Y-108849999D01*
G75*
G02*
X71349999Y-108600000I249999J0D01*
G01*
X72050001Y-108600000D01*
G75*
G02*
X72300000Y-108849999I0J-249999D01*
G01*
G37*
D10*
X63900000Y-103300000D03*
X64850000Y-101300000D03*
X62950000Y-101300000D03*
G36*
G01*
X60649999Y-102850000D02*
X61550001Y-102850000D01*
G75*
G02*
X61800000Y-103099999I0J-249999D01*
G01*
X61800000Y-103800001D01*
G75*
G02*
X61550001Y-104050000I-249999J0D01*
G01*
X60649999Y-104050000D01*
G75*
G02*
X60400000Y-103800001I0J249999D01*
G01*
X60400000Y-103099999D01*
G75*
G02*
X60649999Y-102850000I249999J0D01*
G01*
G37*
G36*
G01*
X60649999Y-100850000D02*
X61550001Y-100850000D01*
G75*
G02*
X61800000Y-101099999I0J-249999D01*
G01*
X61800000Y-101800001D01*
G75*
G02*
X61550001Y-102050000I-249999J0D01*
G01*
X60649999Y-102050000D01*
G75*
G02*
X60400000Y-101800001I0J249999D01*
G01*
X60400000Y-101099999D01*
G75*
G02*
X60649999Y-100850000I249999J0D01*
G01*
G37*
G36*
G01*
X75500000Y-103949999D02*
X75500000Y-104850001D01*
G75*
G02*
X75250001Y-105100000I-249999J0D01*
G01*
X74549999Y-105100000D01*
G75*
G02*
X74300000Y-104850001I0J249999D01*
G01*
X74300000Y-103949999D01*
G75*
G02*
X74549999Y-103700000I249999J0D01*
G01*
X75250001Y-103700000D01*
G75*
G02*
X75500000Y-103949999I0J-249999D01*
G01*
G37*
G36*
G01*
X77500000Y-103949999D02*
X77500000Y-104850001D01*
G75*
G02*
X77250001Y-105100000I-249999J0D01*
G01*
X76549999Y-105100000D01*
G75*
G02*
X76300000Y-104850001I0J249999D01*
G01*
X76300000Y-103949999D01*
G75*
G02*
X76549999Y-103700000I249999J0D01*
G01*
X77250001Y-103700000D01*
G75*
G02*
X77500000Y-103949999I0J-249999D01*
G01*
G37*
M02*
