G04 #@! TF.GenerationSoftware,KiCad,Pcbnew,5.1.9+dfsg1-1+deb11u1*
G04 #@! TF.CreationDate,2023-08-09T03:16:42+03:00*
G04 #@! TF.ProjectId,PTT-USB-Cable,5054542d-5553-4422-9d43-61626c652e6b,A*
G04 #@! TF.SameCoordinates,Original*
G04 #@! TF.FileFunction,Copper,L1,Top*
G04 #@! TF.FilePolarity,Positive*
%FSLAX46Y46*%
G04 Gerber Fmt 4.6, Leading zero omitted, Abs format (unit mm)*
G04 Created by KiCad (PCBNEW 5.1.9+dfsg1-1+deb11u1) date 2023-08-09 03:16:42*
%MOMM*%
%LPD*%
G01*
G04 APERTURE LIST*
G04 #@! TA.AperFunction,EtchedComponent*
%ADD10C,0.100000*%
G04 #@! TD*
G04 #@! TA.AperFunction,ComponentPad*
%ADD11C,1.500000*%
G04 #@! TD*
G04 #@! TA.AperFunction,ComponentPad*
%ADD12R,1.700000X1.700000*%
G04 #@! TD*
G04 #@! TA.AperFunction,ComponentPad*
%ADD13O,1.700000X1.700000*%
G04 #@! TD*
G04 #@! TA.AperFunction,ComponentPad*
%ADD14O,3.500000X1.900000*%
G04 #@! TD*
G04 #@! TA.AperFunction,ComponentPad*
%ADD15C,0.500000*%
G04 #@! TD*
G04 #@! TA.AperFunction,SMDPad,CuDef*
%ADD16R,3.350000X3.350000*%
G04 #@! TD*
G04 #@! TA.AperFunction,SMDPad,CuDef*
%ADD17C,0.100000*%
G04 #@! TD*
G04 #@! TA.AperFunction,SMDPad,CuDef*
%ADD18R,1.000000X1.500000*%
G04 #@! TD*
G04 #@! TA.AperFunction,ComponentPad*
%ADD19C,1.800000*%
G04 #@! TD*
G04 #@! TA.AperFunction,ComponentPad*
%ADD20R,1.800000X1.800000*%
G04 #@! TD*
G04 #@! TA.AperFunction,SMDPad,CuDef*
%ADD21R,0.900000X0.800000*%
G04 #@! TD*
G04 #@! TA.AperFunction,SMDPad,CuDef*
%ADD22R,1.060000X0.650000*%
G04 #@! TD*
G04 #@! TA.AperFunction,ViaPad*
%ADD23C,1.200000*%
G04 #@! TD*
G04 #@! TA.AperFunction,Conductor*
%ADD24C,0.400000*%
G04 #@! TD*
G04 #@! TA.AperFunction,Conductor*
%ADD25C,0.300000*%
G04 #@! TD*
G04 #@! TA.AperFunction,Conductor*
%ADD26C,1.000000*%
G04 #@! TD*
G04 #@! TA.AperFunction,Conductor*
%ADD27C,0.500000*%
G04 #@! TD*
G04 APERTURE END LIST*
D10*
G36*
X66600000Y-102150000D02*
G01*
X66100000Y-102150000D01*
X66100000Y-101550000D01*
X66600000Y-101550000D01*
X66600000Y-102150000D01*
G37*
G04 #@! TA.AperFunction,SMDPad,CuDef*
G36*
G01*
X75750000Y-101367500D02*
X75750000Y-101092500D01*
G75*
G02*
X75887500Y-100955000I137500J0D01*
G01*
X77062500Y-100955000D01*
G75*
G02*
X77200000Y-101092500I0J-137500D01*
G01*
X77200000Y-101367500D01*
G75*
G02*
X77062500Y-101505000I-137500J0D01*
G01*
X75887500Y-101505000D01*
G75*
G02*
X75750000Y-101367500I0J137500D01*
G01*
G37*
G04 #@! TD.AperFunction*
G04 #@! TA.AperFunction,SMDPad,CuDef*
G36*
G01*
X75750000Y-103907500D02*
X75750000Y-103632500D01*
G75*
G02*
X75887500Y-103495000I137500J0D01*
G01*
X77062500Y-103495000D01*
G75*
G02*
X77200000Y-103632500I0J-137500D01*
G01*
X77200000Y-103907500D01*
G75*
G02*
X77062500Y-104045000I-137500J0D01*
G01*
X75887500Y-104045000D01*
G75*
G02*
X75750000Y-103907500I0J137500D01*
G01*
G37*
G04 #@! TD.AperFunction*
G04 #@! TA.AperFunction,SMDPad,CuDef*
G36*
G01*
X70250000Y-103907500D02*
X70250000Y-103632500D01*
G75*
G02*
X70387500Y-103495000I137500J0D01*
G01*
X71562500Y-103495000D01*
G75*
G02*
X71700000Y-103632500I0J-137500D01*
G01*
X71700000Y-103907500D01*
G75*
G02*
X71562500Y-104045000I-137500J0D01*
G01*
X70387500Y-104045000D01*
G75*
G02*
X70250000Y-103907500I0J137500D01*
G01*
G37*
G04 #@! TD.AperFunction*
G04 #@! TA.AperFunction,SMDPad,CuDef*
G36*
G01*
X70250000Y-101367500D02*
X70250000Y-101092500D01*
G75*
G02*
X70387500Y-100955000I137500J0D01*
G01*
X71562500Y-100955000D01*
G75*
G02*
X71700000Y-101092500I0J-137500D01*
G01*
X71700000Y-101367500D01*
G75*
G02*
X71562500Y-101505000I-137500J0D01*
G01*
X70387500Y-101505000D01*
G75*
G02*
X70250000Y-101367500I0J137500D01*
G01*
G37*
G04 #@! TD.AperFunction*
D11*
X58500000Y-112350000D03*
X58500000Y-101350000D03*
D12*
X78900000Y-103000000D03*
D13*
X78900000Y-105540000D03*
X78900000Y-108080000D03*
X78900000Y-110620000D03*
G04 #@! TA.AperFunction,ComponentPad*
G36*
G01*
X55600000Y-107525000D02*
X55600000Y-108175000D01*
G75*
G02*
X55275000Y-108500000I-325000J0D01*
G01*
X53425000Y-108500000D01*
G75*
G02*
X53100000Y-108175000I0J325000D01*
G01*
X53100000Y-107525000D01*
G75*
G02*
X53425000Y-107200000I325000J0D01*
G01*
X55275000Y-107200000D01*
G75*
G02*
X55600000Y-107525000I0J-325000D01*
G01*
G37*
G04 #@! TD.AperFunction*
G04 #@! TA.AperFunction,ComponentPad*
G36*
G01*
X55600000Y-105525000D02*
X55600000Y-106175000D01*
G75*
G02*
X55275000Y-106500000I-325000J0D01*
G01*
X53425000Y-106500000D01*
G75*
G02*
X53100000Y-106175000I0J325000D01*
G01*
X53100000Y-105525000D01*
G75*
G02*
X53425000Y-105200000I325000J0D01*
G01*
X55275000Y-105200000D01*
G75*
G02*
X55600000Y-105525000I0J-325000D01*
G01*
G37*
G04 #@! TD.AperFunction*
G04 #@! TA.AperFunction,ComponentPad*
G36*
G01*
X55600000Y-110025000D02*
X55600000Y-110675000D01*
G75*
G02*
X55275000Y-111000000I-325000J0D01*
G01*
X53425000Y-111000000D01*
G75*
G02*
X53100000Y-110675000I0J325000D01*
G01*
X53100000Y-110025000D01*
G75*
G02*
X53425000Y-109700000I325000J0D01*
G01*
X55275000Y-109700000D01*
G75*
G02*
X55600000Y-110025000I0J-325000D01*
G01*
G37*
G04 #@! TD.AperFunction*
G04 #@! TA.AperFunction,ComponentPad*
G36*
G01*
X55600000Y-103025000D02*
X55600000Y-103675000D01*
G75*
G02*
X55275000Y-104000000I-325000J0D01*
G01*
X53425000Y-104000000D01*
G75*
G02*
X53100000Y-103675000I0J325000D01*
G01*
X53100000Y-103025000D01*
G75*
G02*
X53425000Y-102700000I325000J0D01*
G01*
X55275000Y-102700000D01*
G75*
G02*
X55600000Y-103025000I0J-325000D01*
G01*
G37*
G04 #@! TD.AperFunction*
D14*
X52300000Y-112550000D03*
X52300000Y-101150000D03*
D15*
X67300000Y-107300000D03*
X66300000Y-107300000D03*
X65300000Y-107300000D03*
X67300000Y-106300000D03*
X66300000Y-106300000D03*
X65300000Y-106300000D03*
X67300000Y-105300000D03*
X66300000Y-105300000D03*
X65300000Y-105300000D03*
D16*
X66300000Y-106300000D03*
G04 #@! TA.AperFunction,SMDPad,CuDef*
G36*
G01*
X64675000Y-104187500D02*
X64675000Y-103512500D01*
G75*
G02*
X64737500Y-103450000I62500J0D01*
G01*
X64862500Y-103450000D01*
G75*
G02*
X64925000Y-103512500I0J-62500D01*
G01*
X64925000Y-104187500D01*
G75*
G02*
X64862500Y-104250000I-62500J0D01*
G01*
X64737500Y-104250000D01*
G75*
G02*
X64675000Y-104187500I0J62500D01*
G01*
G37*
G04 #@! TD.AperFunction*
G04 #@! TA.AperFunction,SMDPad,CuDef*
G36*
G01*
X65175000Y-104187500D02*
X65175000Y-103512500D01*
G75*
G02*
X65237500Y-103450000I62500J0D01*
G01*
X65362500Y-103450000D01*
G75*
G02*
X65425000Y-103512500I0J-62500D01*
G01*
X65425000Y-104187500D01*
G75*
G02*
X65362500Y-104250000I-62500J0D01*
G01*
X65237500Y-104250000D01*
G75*
G02*
X65175000Y-104187500I0J62500D01*
G01*
G37*
G04 #@! TD.AperFunction*
G04 #@! TA.AperFunction,SMDPad,CuDef*
G36*
G01*
X65675000Y-104187500D02*
X65675000Y-103512500D01*
G75*
G02*
X65737500Y-103450000I62500J0D01*
G01*
X65862500Y-103450000D01*
G75*
G02*
X65925000Y-103512500I0J-62500D01*
G01*
X65925000Y-104187500D01*
G75*
G02*
X65862500Y-104250000I-62500J0D01*
G01*
X65737500Y-104250000D01*
G75*
G02*
X65675000Y-104187500I0J62500D01*
G01*
G37*
G04 #@! TD.AperFunction*
G04 #@! TA.AperFunction,SMDPad,CuDef*
G36*
G01*
X66175000Y-104187500D02*
X66175000Y-103512500D01*
G75*
G02*
X66237500Y-103450000I62500J0D01*
G01*
X66362500Y-103450000D01*
G75*
G02*
X66425000Y-103512500I0J-62500D01*
G01*
X66425000Y-104187500D01*
G75*
G02*
X66362500Y-104250000I-62500J0D01*
G01*
X66237500Y-104250000D01*
G75*
G02*
X66175000Y-104187500I0J62500D01*
G01*
G37*
G04 #@! TD.AperFunction*
G04 #@! TA.AperFunction,SMDPad,CuDef*
G36*
G01*
X66675000Y-104187500D02*
X66675000Y-103512500D01*
G75*
G02*
X66737500Y-103450000I62500J0D01*
G01*
X66862500Y-103450000D01*
G75*
G02*
X66925000Y-103512500I0J-62500D01*
G01*
X66925000Y-104187500D01*
G75*
G02*
X66862500Y-104250000I-62500J0D01*
G01*
X66737500Y-104250000D01*
G75*
G02*
X66675000Y-104187500I0J62500D01*
G01*
G37*
G04 #@! TD.AperFunction*
G04 #@! TA.AperFunction,SMDPad,CuDef*
G36*
G01*
X67175000Y-104187500D02*
X67175000Y-103512500D01*
G75*
G02*
X67237500Y-103450000I62500J0D01*
G01*
X67362500Y-103450000D01*
G75*
G02*
X67425000Y-103512500I0J-62500D01*
G01*
X67425000Y-104187500D01*
G75*
G02*
X67362500Y-104250000I-62500J0D01*
G01*
X67237500Y-104250000D01*
G75*
G02*
X67175000Y-104187500I0J62500D01*
G01*
G37*
G04 #@! TD.AperFunction*
G04 #@! TA.AperFunction,SMDPad,CuDef*
G36*
G01*
X67675000Y-104187500D02*
X67675000Y-103512500D01*
G75*
G02*
X67737500Y-103450000I62500J0D01*
G01*
X67862500Y-103450000D01*
G75*
G02*
X67925000Y-103512500I0J-62500D01*
G01*
X67925000Y-104187500D01*
G75*
G02*
X67862500Y-104250000I-62500J0D01*
G01*
X67737500Y-104250000D01*
G75*
G02*
X67675000Y-104187500I0J62500D01*
G01*
G37*
G04 #@! TD.AperFunction*
G04 #@! TA.AperFunction,SMDPad,CuDef*
G36*
G01*
X68350000Y-104862500D02*
X68350000Y-104737500D01*
G75*
G02*
X68412500Y-104675000I62500J0D01*
G01*
X69087500Y-104675000D01*
G75*
G02*
X69150000Y-104737500I0J-62500D01*
G01*
X69150000Y-104862500D01*
G75*
G02*
X69087500Y-104925000I-62500J0D01*
G01*
X68412500Y-104925000D01*
G75*
G02*
X68350000Y-104862500I0J62500D01*
G01*
G37*
G04 #@! TD.AperFunction*
G04 #@! TA.AperFunction,SMDPad,CuDef*
G36*
G01*
X68350000Y-105362500D02*
X68350000Y-105237500D01*
G75*
G02*
X68412500Y-105175000I62500J0D01*
G01*
X69087500Y-105175000D01*
G75*
G02*
X69150000Y-105237500I0J-62500D01*
G01*
X69150000Y-105362500D01*
G75*
G02*
X69087500Y-105425000I-62500J0D01*
G01*
X68412500Y-105425000D01*
G75*
G02*
X68350000Y-105362500I0J62500D01*
G01*
G37*
G04 #@! TD.AperFunction*
G04 #@! TA.AperFunction,SMDPad,CuDef*
G36*
G01*
X68350000Y-105862500D02*
X68350000Y-105737500D01*
G75*
G02*
X68412500Y-105675000I62500J0D01*
G01*
X69087500Y-105675000D01*
G75*
G02*
X69150000Y-105737500I0J-62500D01*
G01*
X69150000Y-105862500D01*
G75*
G02*
X69087500Y-105925000I-62500J0D01*
G01*
X68412500Y-105925000D01*
G75*
G02*
X68350000Y-105862500I0J62500D01*
G01*
G37*
G04 #@! TD.AperFunction*
G04 #@! TA.AperFunction,SMDPad,CuDef*
G36*
G01*
X68350000Y-106362500D02*
X68350000Y-106237500D01*
G75*
G02*
X68412500Y-106175000I62500J0D01*
G01*
X69087500Y-106175000D01*
G75*
G02*
X69150000Y-106237500I0J-62500D01*
G01*
X69150000Y-106362500D01*
G75*
G02*
X69087500Y-106425000I-62500J0D01*
G01*
X68412500Y-106425000D01*
G75*
G02*
X68350000Y-106362500I0J62500D01*
G01*
G37*
G04 #@! TD.AperFunction*
G04 #@! TA.AperFunction,SMDPad,CuDef*
G36*
G01*
X68350000Y-106862500D02*
X68350000Y-106737500D01*
G75*
G02*
X68412500Y-106675000I62500J0D01*
G01*
X69087500Y-106675000D01*
G75*
G02*
X69150000Y-106737500I0J-62500D01*
G01*
X69150000Y-106862500D01*
G75*
G02*
X69087500Y-106925000I-62500J0D01*
G01*
X68412500Y-106925000D01*
G75*
G02*
X68350000Y-106862500I0J62500D01*
G01*
G37*
G04 #@! TD.AperFunction*
G04 #@! TA.AperFunction,SMDPad,CuDef*
G36*
G01*
X68350000Y-107362500D02*
X68350000Y-107237500D01*
G75*
G02*
X68412500Y-107175000I62500J0D01*
G01*
X69087500Y-107175000D01*
G75*
G02*
X69150000Y-107237500I0J-62500D01*
G01*
X69150000Y-107362500D01*
G75*
G02*
X69087500Y-107425000I-62500J0D01*
G01*
X68412500Y-107425000D01*
G75*
G02*
X68350000Y-107362500I0J62500D01*
G01*
G37*
G04 #@! TD.AperFunction*
G04 #@! TA.AperFunction,SMDPad,CuDef*
G36*
G01*
X68350000Y-107862500D02*
X68350000Y-107737500D01*
G75*
G02*
X68412500Y-107675000I62500J0D01*
G01*
X69087500Y-107675000D01*
G75*
G02*
X69150000Y-107737500I0J-62500D01*
G01*
X69150000Y-107862500D01*
G75*
G02*
X69087500Y-107925000I-62500J0D01*
G01*
X68412500Y-107925000D01*
G75*
G02*
X68350000Y-107862500I0J62500D01*
G01*
G37*
G04 #@! TD.AperFunction*
G04 #@! TA.AperFunction,SMDPad,CuDef*
G36*
G01*
X67675000Y-109087500D02*
X67675000Y-108412500D01*
G75*
G02*
X67737500Y-108350000I62500J0D01*
G01*
X67862500Y-108350000D01*
G75*
G02*
X67925000Y-108412500I0J-62500D01*
G01*
X67925000Y-109087500D01*
G75*
G02*
X67862500Y-109150000I-62500J0D01*
G01*
X67737500Y-109150000D01*
G75*
G02*
X67675000Y-109087500I0J62500D01*
G01*
G37*
G04 #@! TD.AperFunction*
G04 #@! TA.AperFunction,SMDPad,CuDef*
G36*
G01*
X67175000Y-109087500D02*
X67175000Y-108412500D01*
G75*
G02*
X67237500Y-108350000I62500J0D01*
G01*
X67362500Y-108350000D01*
G75*
G02*
X67425000Y-108412500I0J-62500D01*
G01*
X67425000Y-109087500D01*
G75*
G02*
X67362500Y-109150000I-62500J0D01*
G01*
X67237500Y-109150000D01*
G75*
G02*
X67175000Y-109087500I0J62500D01*
G01*
G37*
G04 #@! TD.AperFunction*
G04 #@! TA.AperFunction,SMDPad,CuDef*
G36*
G01*
X66675000Y-109087500D02*
X66675000Y-108412500D01*
G75*
G02*
X66737500Y-108350000I62500J0D01*
G01*
X66862500Y-108350000D01*
G75*
G02*
X66925000Y-108412500I0J-62500D01*
G01*
X66925000Y-109087500D01*
G75*
G02*
X66862500Y-109150000I-62500J0D01*
G01*
X66737500Y-109150000D01*
G75*
G02*
X66675000Y-109087500I0J62500D01*
G01*
G37*
G04 #@! TD.AperFunction*
G04 #@! TA.AperFunction,SMDPad,CuDef*
G36*
G01*
X66175000Y-109087500D02*
X66175000Y-108412500D01*
G75*
G02*
X66237500Y-108350000I62500J0D01*
G01*
X66362500Y-108350000D01*
G75*
G02*
X66425000Y-108412500I0J-62500D01*
G01*
X66425000Y-109087500D01*
G75*
G02*
X66362500Y-109150000I-62500J0D01*
G01*
X66237500Y-109150000D01*
G75*
G02*
X66175000Y-109087500I0J62500D01*
G01*
G37*
G04 #@! TD.AperFunction*
G04 #@! TA.AperFunction,SMDPad,CuDef*
G36*
G01*
X65675000Y-109087500D02*
X65675000Y-108412500D01*
G75*
G02*
X65737500Y-108350000I62500J0D01*
G01*
X65862500Y-108350000D01*
G75*
G02*
X65925000Y-108412500I0J-62500D01*
G01*
X65925000Y-109087500D01*
G75*
G02*
X65862500Y-109150000I-62500J0D01*
G01*
X65737500Y-109150000D01*
G75*
G02*
X65675000Y-109087500I0J62500D01*
G01*
G37*
G04 #@! TD.AperFunction*
G04 #@! TA.AperFunction,SMDPad,CuDef*
G36*
G01*
X65175000Y-109087500D02*
X65175000Y-108412500D01*
G75*
G02*
X65237500Y-108350000I62500J0D01*
G01*
X65362500Y-108350000D01*
G75*
G02*
X65425000Y-108412500I0J-62500D01*
G01*
X65425000Y-109087500D01*
G75*
G02*
X65362500Y-109150000I-62500J0D01*
G01*
X65237500Y-109150000D01*
G75*
G02*
X65175000Y-109087500I0J62500D01*
G01*
G37*
G04 #@! TD.AperFunction*
G04 #@! TA.AperFunction,SMDPad,CuDef*
G36*
G01*
X64675000Y-109087500D02*
X64675000Y-108412500D01*
G75*
G02*
X64737500Y-108350000I62500J0D01*
G01*
X64862500Y-108350000D01*
G75*
G02*
X64925000Y-108412500I0J-62500D01*
G01*
X64925000Y-109087500D01*
G75*
G02*
X64862500Y-109150000I-62500J0D01*
G01*
X64737500Y-109150000D01*
G75*
G02*
X64675000Y-109087500I0J62500D01*
G01*
G37*
G04 #@! TD.AperFunction*
G04 #@! TA.AperFunction,SMDPad,CuDef*
G36*
G01*
X63450000Y-107862500D02*
X63450000Y-107737500D01*
G75*
G02*
X63512500Y-107675000I62500J0D01*
G01*
X64187500Y-107675000D01*
G75*
G02*
X64250000Y-107737500I0J-62500D01*
G01*
X64250000Y-107862500D01*
G75*
G02*
X64187500Y-107925000I-62500J0D01*
G01*
X63512500Y-107925000D01*
G75*
G02*
X63450000Y-107862500I0J62500D01*
G01*
G37*
G04 #@! TD.AperFunction*
G04 #@! TA.AperFunction,SMDPad,CuDef*
G36*
G01*
X63450000Y-107362500D02*
X63450000Y-107237500D01*
G75*
G02*
X63512500Y-107175000I62500J0D01*
G01*
X64187500Y-107175000D01*
G75*
G02*
X64250000Y-107237500I0J-62500D01*
G01*
X64250000Y-107362500D01*
G75*
G02*
X64187500Y-107425000I-62500J0D01*
G01*
X63512500Y-107425000D01*
G75*
G02*
X63450000Y-107362500I0J62500D01*
G01*
G37*
G04 #@! TD.AperFunction*
G04 #@! TA.AperFunction,SMDPad,CuDef*
G36*
G01*
X63450000Y-106862500D02*
X63450000Y-106737500D01*
G75*
G02*
X63512500Y-106675000I62500J0D01*
G01*
X64187500Y-106675000D01*
G75*
G02*
X64250000Y-106737500I0J-62500D01*
G01*
X64250000Y-106862500D01*
G75*
G02*
X64187500Y-106925000I-62500J0D01*
G01*
X63512500Y-106925000D01*
G75*
G02*
X63450000Y-106862500I0J62500D01*
G01*
G37*
G04 #@! TD.AperFunction*
G04 #@! TA.AperFunction,SMDPad,CuDef*
G36*
G01*
X63450000Y-106362500D02*
X63450000Y-106237500D01*
G75*
G02*
X63512500Y-106175000I62500J0D01*
G01*
X64187500Y-106175000D01*
G75*
G02*
X64250000Y-106237500I0J-62500D01*
G01*
X64250000Y-106362500D01*
G75*
G02*
X64187500Y-106425000I-62500J0D01*
G01*
X63512500Y-106425000D01*
G75*
G02*
X63450000Y-106362500I0J62500D01*
G01*
G37*
G04 #@! TD.AperFunction*
G04 #@! TA.AperFunction,SMDPad,CuDef*
G36*
G01*
X63450000Y-105862500D02*
X63450000Y-105737500D01*
G75*
G02*
X63512500Y-105675000I62500J0D01*
G01*
X64187500Y-105675000D01*
G75*
G02*
X64250000Y-105737500I0J-62500D01*
G01*
X64250000Y-105862500D01*
G75*
G02*
X64187500Y-105925000I-62500J0D01*
G01*
X63512500Y-105925000D01*
G75*
G02*
X63450000Y-105862500I0J62500D01*
G01*
G37*
G04 #@! TD.AperFunction*
G04 #@! TA.AperFunction,SMDPad,CuDef*
G36*
G01*
X63450000Y-105362500D02*
X63450000Y-105237500D01*
G75*
G02*
X63512500Y-105175000I62500J0D01*
G01*
X64187500Y-105175000D01*
G75*
G02*
X64250000Y-105237500I0J-62500D01*
G01*
X64250000Y-105362500D01*
G75*
G02*
X64187500Y-105425000I-62500J0D01*
G01*
X63512500Y-105425000D01*
G75*
G02*
X63450000Y-105362500I0J62500D01*
G01*
G37*
G04 #@! TD.AperFunction*
G04 #@! TA.AperFunction,SMDPad,CuDef*
G36*
G01*
X63450000Y-104862500D02*
X63450000Y-104737500D01*
G75*
G02*
X63512500Y-104675000I62500J0D01*
G01*
X64187500Y-104675000D01*
G75*
G02*
X64250000Y-104737500I0J-62500D01*
G01*
X64250000Y-104862500D01*
G75*
G02*
X64187500Y-104925000I-62500J0D01*
G01*
X63512500Y-104925000D01*
G75*
G02*
X63450000Y-104862500I0J62500D01*
G01*
G37*
G04 #@! TD.AperFunction*
G04 #@! TA.AperFunction,SMDPad,CuDef*
D17*
G36*
X64400000Y-102599398D02*
G01*
X64375466Y-102599398D01*
X64326635Y-102594588D01*
X64278510Y-102585016D01*
X64231555Y-102570772D01*
X64186222Y-102551995D01*
X64142949Y-102528864D01*
X64102150Y-102501604D01*
X64064221Y-102470476D01*
X64029524Y-102435779D01*
X63998396Y-102397850D01*
X63971136Y-102357051D01*
X63948005Y-102313778D01*
X63929228Y-102268445D01*
X63914984Y-102221490D01*
X63905412Y-102173365D01*
X63900602Y-102124534D01*
X63900602Y-102100000D01*
X63900000Y-102100000D01*
X63900000Y-101600000D01*
X63900602Y-101600000D01*
X63900602Y-101575466D01*
X63905412Y-101526635D01*
X63914984Y-101478510D01*
X63929228Y-101431555D01*
X63948005Y-101386222D01*
X63971136Y-101342949D01*
X63998396Y-101302150D01*
X64029524Y-101264221D01*
X64064221Y-101229524D01*
X64102150Y-101198396D01*
X64142949Y-101171136D01*
X64186222Y-101148005D01*
X64231555Y-101129228D01*
X64278510Y-101114984D01*
X64326635Y-101105412D01*
X64375466Y-101100602D01*
X64400000Y-101100602D01*
X64400000Y-101100000D01*
X64950000Y-101100000D01*
X64950000Y-102600000D01*
X64400000Y-102600000D01*
X64400000Y-102599398D01*
G37*
G04 #@! TD.AperFunction*
D18*
X65700000Y-101850000D03*
G04 #@! TA.AperFunction,SMDPad,CuDef*
D17*
G36*
X66450000Y-101100000D02*
G01*
X67000000Y-101100000D01*
X67000000Y-101100602D01*
X67024534Y-101100602D01*
X67073365Y-101105412D01*
X67121490Y-101114984D01*
X67168445Y-101129228D01*
X67213778Y-101148005D01*
X67257051Y-101171136D01*
X67297850Y-101198396D01*
X67335779Y-101229524D01*
X67370476Y-101264221D01*
X67401604Y-101302150D01*
X67428864Y-101342949D01*
X67451995Y-101386222D01*
X67470772Y-101431555D01*
X67485016Y-101478510D01*
X67494588Y-101526635D01*
X67499398Y-101575466D01*
X67499398Y-101600000D01*
X67500000Y-101600000D01*
X67500000Y-102100000D01*
X67499398Y-102100000D01*
X67499398Y-102124534D01*
X67494588Y-102173365D01*
X67485016Y-102221490D01*
X67470772Y-102268445D01*
X67451995Y-102313778D01*
X67428864Y-102357051D01*
X67401604Y-102397850D01*
X67370476Y-102435779D01*
X67335779Y-102470476D01*
X67297850Y-102501604D01*
X67257051Y-102528864D01*
X67213778Y-102551995D01*
X67168445Y-102570772D01*
X67121490Y-102585016D01*
X67073365Y-102594588D01*
X67024534Y-102599398D01*
X67000000Y-102599398D01*
X67000000Y-102600000D01*
X66450000Y-102600000D01*
X66450000Y-101100000D01*
G37*
G04 #@! TD.AperFunction*
G04 #@! TA.AperFunction,SMDPad,CuDef*
G36*
G01*
X60025000Y-111850000D02*
X60975000Y-111850000D01*
G75*
G02*
X61225000Y-112100000I0J-250000D01*
G01*
X61225000Y-112775000D01*
G75*
G02*
X60975000Y-113025000I-250000J0D01*
G01*
X60025000Y-113025000D01*
G75*
G02*
X59775000Y-112775000I0J250000D01*
G01*
X59775000Y-112100000D01*
G75*
G02*
X60025000Y-111850000I250000J0D01*
G01*
G37*
G04 #@! TD.AperFunction*
G04 #@! TA.AperFunction,SMDPad,CuDef*
G36*
G01*
X60025000Y-109775000D02*
X60975000Y-109775000D01*
G75*
G02*
X61225000Y-110025000I0J-250000D01*
G01*
X61225000Y-110700000D01*
G75*
G02*
X60975000Y-110950000I-250000J0D01*
G01*
X60025000Y-110950000D01*
G75*
G02*
X59775000Y-110700000I0J250000D01*
G01*
X59775000Y-110025000D01*
G75*
G02*
X60025000Y-109775000I250000J0D01*
G01*
G37*
G04 #@! TD.AperFunction*
G04 #@! TA.AperFunction,SMDPad,CuDef*
G36*
G01*
X62025000Y-111850000D02*
X62975000Y-111850000D01*
G75*
G02*
X63225000Y-112100000I0J-250000D01*
G01*
X63225000Y-112775000D01*
G75*
G02*
X62975000Y-113025000I-250000J0D01*
G01*
X62025000Y-113025000D01*
G75*
G02*
X61775000Y-112775000I0J250000D01*
G01*
X61775000Y-112100000D01*
G75*
G02*
X62025000Y-111850000I250000J0D01*
G01*
G37*
G04 #@! TD.AperFunction*
G04 #@! TA.AperFunction,SMDPad,CuDef*
G36*
G01*
X62025000Y-109775000D02*
X62975000Y-109775000D01*
G75*
G02*
X63225000Y-110025000I0J-250000D01*
G01*
X63225000Y-110700000D01*
G75*
G02*
X62975000Y-110950000I-250000J0D01*
G01*
X62025000Y-110950000D01*
G75*
G02*
X61775000Y-110700000I0J250000D01*
G01*
X61775000Y-110025000D01*
G75*
G02*
X62025000Y-109775000I250000J0D01*
G01*
G37*
G04 #@! TD.AperFunction*
D19*
X71020000Y-106800000D03*
X73560000Y-106800000D03*
D20*
X76100000Y-106800000D03*
D21*
X74300000Y-111650000D03*
X72300000Y-112600000D03*
X72300000Y-110700000D03*
G04 #@! TA.AperFunction,SMDPad,CuDef*
G36*
G01*
X66250000Y-111949999D02*
X66250000Y-112850001D01*
G75*
G02*
X66000001Y-113100000I-249999J0D01*
G01*
X65299999Y-113100000D01*
G75*
G02*
X65050000Y-112850001I0J249999D01*
G01*
X65050000Y-111949999D01*
G75*
G02*
X65299999Y-111700000I249999J0D01*
G01*
X66000001Y-111700000D01*
G75*
G02*
X66250000Y-111949999I0J-249999D01*
G01*
G37*
G04 #@! TD.AperFunction*
G04 #@! TA.AperFunction,SMDPad,CuDef*
G36*
G01*
X68250000Y-111949999D02*
X68250000Y-112850001D01*
G75*
G02*
X68000001Y-113100000I-249999J0D01*
G01*
X67299999Y-113100000D01*
G75*
G02*
X67050000Y-112850001I0J249999D01*
G01*
X67050000Y-111949999D01*
G75*
G02*
X67299999Y-111700000I249999J0D01*
G01*
X68000001Y-111700000D01*
G75*
G02*
X68250000Y-111949999I0J-249999D01*
G01*
G37*
G04 #@! TD.AperFunction*
G04 #@! TA.AperFunction,SMDPad,CuDef*
G36*
G01*
X60200000Y-104150001D02*
X60200000Y-103249999D01*
G75*
G02*
X60449999Y-103000000I249999J0D01*
G01*
X61150001Y-103000000D01*
G75*
G02*
X61400000Y-103249999I0J-249999D01*
G01*
X61400000Y-104150001D01*
G75*
G02*
X61150001Y-104400000I-249999J0D01*
G01*
X60449999Y-104400000D01*
G75*
G02*
X60200000Y-104150001I0J249999D01*
G01*
G37*
G04 #@! TD.AperFunction*
G04 #@! TA.AperFunction,SMDPad,CuDef*
G36*
G01*
X58200000Y-104150001D02*
X58200000Y-103249999D01*
G75*
G02*
X58449999Y-103000000I249999J0D01*
G01*
X59150001Y-103000000D01*
G75*
G02*
X59400000Y-103249999I0J-249999D01*
G01*
X59400000Y-104150001D01*
G75*
G02*
X59150001Y-104400000I-249999J0D01*
G01*
X58449999Y-104400000D01*
G75*
G02*
X58200000Y-104150001I0J249999D01*
G01*
G37*
G04 #@! TD.AperFunction*
G04 #@! TA.AperFunction,SMDPad,CuDef*
G36*
G01*
X69849999Y-112100000D02*
X70750001Y-112100000D01*
G75*
G02*
X71000000Y-112349999I0J-249999D01*
G01*
X71000000Y-113050001D01*
G75*
G02*
X70750001Y-113300000I-249999J0D01*
G01*
X69849999Y-113300000D01*
G75*
G02*
X69600000Y-113050001I0J249999D01*
G01*
X69600000Y-112349999D01*
G75*
G02*
X69849999Y-112100000I249999J0D01*
G01*
G37*
G04 #@! TD.AperFunction*
G04 #@! TA.AperFunction,SMDPad,CuDef*
G36*
G01*
X69849999Y-110100000D02*
X70750001Y-110100000D01*
G75*
G02*
X71000000Y-110349999I0J-249999D01*
G01*
X71000000Y-111050001D01*
G75*
G02*
X70750001Y-111300000I-249999J0D01*
G01*
X69849999Y-111300000D01*
G75*
G02*
X69600000Y-111050001I0J249999D01*
G01*
X69600000Y-110349999D01*
G75*
G02*
X69849999Y-110100000I249999J0D01*
G01*
G37*
G04 #@! TD.AperFunction*
G04 #@! TA.AperFunction,SMDPad,CuDef*
G36*
G01*
X75849999Y-111950000D02*
X76750001Y-111950000D01*
G75*
G02*
X77000000Y-112199999I0J-249999D01*
G01*
X77000000Y-112900001D01*
G75*
G02*
X76750001Y-113150000I-249999J0D01*
G01*
X75849999Y-113150000D01*
G75*
G02*
X75600000Y-112900001I0J249999D01*
G01*
X75600000Y-112199999D01*
G75*
G02*
X75849999Y-111950000I249999J0D01*
G01*
G37*
G04 #@! TD.AperFunction*
G04 #@! TA.AperFunction,SMDPad,CuDef*
G36*
G01*
X75849999Y-109950000D02*
X76750001Y-109950000D01*
G75*
G02*
X77000000Y-110199999I0J-249999D01*
G01*
X77000000Y-110900001D01*
G75*
G02*
X76750001Y-111150000I-249999J0D01*
G01*
X75849999Y-111150000D01*
G75*
G02*
X75600000Y-110900001I0J249999D01*
G01*
X75600000Y-110199999D01*
G75*
G02*
X75849999Y-109950000I249999J0D01*
G01*
G37*
G04 #@! TD.AperFunction*
D22*
X60800000Y-106900000D03*
X60800000Y-105950000D03*
X60800000Y-107850000D03*
X58600000Y-107850000D03*
X58600000Y-106900000D03*
X58600000Y-105950000D03*
D23*
X57200000Y-106850000D03*
X74600000Y-113000000D03*
X63900000Y-112650000D03*
X63876471Y-110873529D03*
X66700000Y-110900000D03*
X62500000Y-108700000D03*
X62500000Y-103550000D03*
X68600000Y-110300000D03*
X69800000Y-102425000D03*
X73800000Y-100800000D03*
D24*
X58600000Y-106900000D02*
X57250000Y-106900000D01*
X57250000Y-106900000D02*
X57200000Y-106850000D01*
D25*
X65800000Y-105800000D02*
X66300000Y-106300000D01*
X63850000Y-105800000D02*
X65800000Y-105800000D01*
D26*
X60500000Y-112437500D02*
X62500000Y-112437500D01*
X62500000Y-112437500D02*
X63687500Y-112437500D01*
X63687500Y-112437500D02*
X63900000Y-112650000D01*
D24*
X72700000Y-113000000D02*
X72300000Y-112600000D01*
X74600000Y-113000000D02*
X72700000Y-113000000D01*
D26*
X55050000Y-110350000D02*
X58612500Y-110350000D01*
X58700000Y-110362500D02*
X59562500Y-110362500D01*
X59562500Y-110362500D02*
X60700000Y-110362500D01*
D25*
X63850000Y-107800000D02*
X63850000Y-109150000D01*
D26*
X60500000Y-110362500D02*
X62500000Y-110362500D01*
D24*
X63876471Y-110873529D02*
X63876471Y-110676471D01*
X63562500Y-110362500D02*
X62500000Y-110362500D01*
X63876471Y-110676471D02*
X63562500Y-110362500D01*
D25*
X63850000Y-110847058D02*
X63876471Y-110873529D01*
X63850000Y-109700000D02*
X64599990Y-109700000D01*
X63850000Y-109700000D02*
X63850000Y-110847058D01*
X63850000Y-109150000D02*
X63850000Y-109700000D01*
X64800000Y-109499990D02*
X64599990Y-109700000D01*
X64800000Y-108750000D02*
X64800000Y-109499990D01*
D24*
X59700000Y-104600000D02*
X58800000Y-103700000D01*
X59562500Y-110362500D02*
X59700000Y-110225000D01*
X59800000Y-106900000D02*
X59700000Y-106800000D01*
X60800000Y-106900000D02*
X59800000Y-106900000D01*
X59700000Y-110225000D02*
X59700000Y-106800000D01*
X59700000Y-106800000D02*
X59700000Y-104600000D01*
D25*
X63850000Y-107300000D02*
X63366622Y-107300000D01*
X63366622Y-107300000D02*
X63200000Y-107300000D01*
X63200000Y-107300000D02*
X62600000Y-107900000D01*
X62500000Y-108000000D02*
X62500000Y-108700000D01*
X62600000Y-107900000D02*
X62500000Y-108000000D01*
D24*
X67650000Y-111850000D02*
X66700000Y-110900000D01*
X67650000Y-112400000D02*
X67650000Y-111850000D01*
X76300000Y-106800000D02*
X76300000Y-110550000D01*
D27*
X76300000Y-107000000D02*
X76100000Y-106800000D01*
X76300000Y-110550000D02*
X76300000Y-107000000D01*
D24*
X54450001Y-105749999D02*
X54350000Y-105850000D01*
X57728001Y-105749999D02*
X54450001Y-105749999D01*
X57928002Y-105950000D02*
X57728001Y-105749999D01*
X58600000Y-105950000D02*
X57928002Y-105950000D01*
X58600000Y-107850000D02*
X58550000Y-107850000D01*
X58449999Y-107950001D02*
X54450001Y-107950001D01*
X54450001Y-107950001D02*
X54350000Y-107850000D01*
X58550000Y-107850000D02*
X58449999Y-107950001D01*
X78900000Y-103000000D02*
X78900000Y-102400000D01*
D26*
X78900000Y-103000000D02*
X78900000Y-105540000D01*
D25*
X66800000Y-101600000D02*
X67000000Y-101400000D01*
X66800000Y-103850000D02*
X66800000Y-101600000D01*
D24*
X65700000Y-100700000D02*
X65599990Y-100599990D01*
X65700000Y-101850000D02*
X65700000Y-100700000D01*
X60800000Y-103700000D02*
X62350000Y-103700000D01*
X62350000Y-103700000D02*
X62500000Y-103550000D01*
X62500000Y-103550000D02*
X62500000Y-101299980D01*
X65599990Y-100599990D02*
X63199990Y-100599990D01*
X62500000Y-101299980D02*
X63199990Y-100599990D01*
D25*
X64800000Y-103850000D02*
X64800000Y-103100000D01*
X64400000Y-102700000D02*
X64400000Y-101400000D01*
X64800000Y-103100000D02*
X64400000Y-102700000D01*
D24*
X70300000Y-112700000D02*
X68600000Y-111000000D01*
X68600000Y-111000000D02*
X68600000Y-110300000D01*
X72300000Y-110700000D02*
X70300000Y-110700000D01*
D25*
X65650000Y-110600000D02*
X65300000Y-110250000D01*
X65650000Y-112400000D02*
X65650000Y-110600000D01*
X65300000Y-108750000D02*
X65300000Y-110250000D01*
X61850000Y-107850000D02*
X60800000Y-107850000D01*
X63850000Y-106800000D02*
X62900000Y-106800000D01*
X62900000Y-106800000D02*
X61850000Y-107850000D01*
X60800000Y-107850000D02*
X61550000Y-107850000D01*
X63850000Y-106300000D02*
X62900000Y-106300000D01*
X62900000Y-106300000D02*
X62600000Y-106000000D01*
X60850000Y-106000000D02*
X60800000Y-105950000D01*
X62600000Y-106000000D02*
X60850000Y-106000000D01*
D24*
X77549999Y-106729999D02*
X78900000Y-108080000D01*
X77549999Y-103900000D02*
X77549999Y-106729999D01*
X77419999Y-103770000D02*
X77549999Y-103900000D01*
X76475000Y-103770000D02*
X77419999Y-103770000D01*
X75400000Y-111650000D02*
X76300000Y-112550000D01*
X74300000Y-111650000D02*
X75400000Y-111650000D01*
D25*
X74300000Y-110950000D02*
X74300000Y-111650000D01*
X72600000Y-109250000D02*
X74300000Y-110950000D01*
X70450000Y-109250000D02*
X72600000Y-109250000D01*
X69669999Y-108469999D02*
X70450000Y-109250000D01*
X69669999Y-104205001D02*
X69669999Y-108469999D01*
X70105000Y-103770000D02*
X69669999Y-104205001D01*
X70975000Y-103770000D02*
X70105000Y-103770000D01*
D24*
X70975000Y-101230000D02*
X70070000Y-101230000D01*
X69800000Y-101500000D02*
X70070000Y-101230000D01*
X69800000Y-102425000D02*
X69800000Y-101500000D01*
X76475000Y-101230000D02*
X75230000Y-101230000D01*
X74800000Y-100800000D02*
X75230000Y-101230000D01*
X73800000Y-100800000D02*
X74800000Y-100800000D01*
M02*
