M48
; DRILL file {KiCad 5.1.9+dfsg1-1+deb11u1} date Wed Aug  9 03:17:18 2023
; FORMAT={-:-/ absolute / metric / decimal}
; #@! TF.CreationDate,2023-08-09T03:17:18+03:00
; #@! TF.GenerationSoftware,Kicad,Pcbnew,5.1.9+dfsg1-1+deb11u1
; #@! TF.FileFunction,Plated,1,2,PTH
FMAT,2
METRIC
T1C0.300
T2C0.600
T3C0.800
T4C0.900
T5C1.000
T6C1.500
%
G90
G05
T1
X65.3Y-105.3
X65.3Y-106.3
X65.3Y-107.3
X66.3Y-105.3
X66.3Y-106.3
X66.3Y-107.3
X67.3Y-105.3
X67.3Y-106.3
X67.3Y-107.3
T2
X57.2Y-106.85
X62.5Y-103.55
X62.5Y-108.7
X63.876Y-110.874
X63.9Y-112.65
X66.7Y-110.9
X68.6Y-110.3
X69.8Y-102.425
X73.8Y-100.8
X74.6Y-113.0
T3
X54.35Y-103.35
X54.35Y-105.85
X54.35Y-107.85
X54.35Y-110.35
T4
X71.02Y-106.8
X73.56Y-106.8
X76.1Y-106.8
T5
X78.9Y-103.0
X78.9Y-105.54
X78.9Y-108.08
X78.9Y-110.62
T6
X58.5Y-101.35
X58.5Y-112.35
T4
G00X53.1Y-101.15
M15
G01X51.5Y-101.15
M16
G05
G00X53.1Y-112.55
M15
G01X51.5Y-112.55
M16
G05
T0
M30
